<?xml version="1.0" encoding="iso-8859-1"?>
<!-- Generator: Adobe Illustrator 19.0.0, SVG Export Plug-In . SVG Version: 6.00 Build 0)  -->
<svg version="1.1" id="Capa_1" xmlns="http://www.w3.org/2000/svg" xmlns:xlink="http://www.w3.org/1999/xlink" x="0px" y="0px"
	 viewBox="0 0 480.004 480.004" style="enable-background:new 0 0 480.004 480.004;" xml:space="preserve">
<g>
	<path style="fill:#78B9EB;" d="M272.002,328.004v96h112v-192h-288v192h112v-96H272.002z"/>
	<path style="fill:#78B9EB;" d="M272.002,424.004l4,24l4,24h192v-48h-40h-48H272.002z"/>
	<path style="fill:#78B9EB;" d="M204.002,448.004l4-24h-112h-48h-40v48h192L204.002,448.004z"/>
	<path style="fill:#78B9EB;" d="M240.002,8.004l-232,80v48h40h384h40v-48L240.002,8.004z"/>
	<path style="fill:#78B9EB;" d="M96.002,168.004h288v64h-288V168.004z"/>
</g>
<g>
	<path style="fill:#1E81CE;" d="M240.002,96.004c-4.418,0-8-3.582-8-8h-16c0.042,10.134,6.445,19.15,16,22.528v9.472h16v-9.472
		c12.473-4.393,19.023-18.066,14.629-30.539c-3.38-9.596-12.455-16.009-22.629-15.989c-4.418,0-8-3.582-8-8s3.582-8,8-8s8,3.582,8,8
		h16c-0.042-10.134-6.445-19.15-16-22.528v-9.472h-16v9.472c-12.473,4.393-19.023,18.066-14.629,30.539
		c3.38,9.596,12.455,16.009,22.629,15.989c4.418,0,8,3.582,8,8S244.42,96.004,240.002,96.004z"/>
	<path style="fill:#1E81CE;" d="M440.002,144.004h32c4.418,0,8-3.582,8-8v-48c-0.001-3.412-2.166-6.448-5.392-7.56l-232-80
		c-1.688-0.592-3.528-0.592-5.216,0l-232,80c-3.226,1.112-5.391,4.148-5.392,7.56v48c0,4.418,3.582,8,8,8h32v272h-32
		c-4.418,0-8,3.582-8,8v48c0,4.418,3.582,8,8,8h464c4.418,0,8-3.582,8-8v-48c0-4.418-3.582-8-8-8h-32V144.004z M16.002,93.708
		l224-77.24l224,77.24v34.296h-448V93.708z M424.002,144.004v16h-368v-16H424.002z M280.002,416.004v-88c0-4.418-3.582-8-8-8h-64
		c-4.418,0-8,3.582-8,8v88h-96v-176h272v176H280.002z M264.002,416.004h-48v-80h48V416.004z M214.778,432.004h50.448l1.336,8h-53.12
		L214.778,432.004z M376.002,224.004h-272v-48h272V224.004z M56.002,176.004h32v240h-32V176.004z M16.002,432.004h182.56l-5.336,32
		H16.002V432.004z M209.45,464.004l1.328-8h58.448l1.328,8H209.45z M464.002,464.004H286.778l-5.336-32h182.56V464.004z
		 M392.002,416.004v-240h32v240H392.002z"/>
</g>
<g>
</g>
<g>
</g>
<g>
</g>
<g>
</g>
<g>
</g>
<g>
</g>
<g>
</g>
<g>
</g>
<g>
</g>
<g>
</g>
<g>
</g>
<g>
</g>
<g>
</g>
<g>
</g>
<g>
</g>
</svg>
