<?xml version="1.0" encoding="iso-8859-1"?>
<!-- Generator: Adobe Illustrator 19.0.0, SVG Export Plug-In . SVG Version: 6.00 Build 0)  -->
<svg version="1.1" id="Capa_1" xmlns="http://www.w3.org/2000/svg" xmlns:xlink="http://www.w3.org/1999/xlink" x="0px" y="0px"
	 viewBox="0 0 503.607 503.607" style="enable-background:new 0 0 503.607 503.607;" xml:space="preserve">
<g>
	<rect x="8.391" y="461.641" style="fill:#D4E1F4;" width="486.82" height="33.574"/>
	<rect x="470.005" y="461.641" style="fill:#7FACFA;" width="25.18" height="33.574"/>
	<rect x="25.178" y="428.067" style="fill:#D4E1F4;" width="453.246" height="33.574"/>
	<rect x="453.218" y="428.067" style="fill:#7FACFA;" width="25.18" height="33.574"/>
	<rect x="8.391" y="142.69" style="fill:#D4E1F4;" width="486.82" height="33.574"/>
	<rect x="470.005" y="142.69" style="fill:#7FACFA;" width="25.18" height="33.574"/>
	<g>
		<rect x="50.358" y="176.264" style="fill:#D4E1F4;" width="33.574" height="251.803"/>
		<rect x="142.661" y="176.264" style="fill:#D4E1F4;" width="33.574" height="251.803"/>
		<rect x="234.988" y="176.264" style="fill:#D4E1F4;" width="33.574" height="251.803"/>
		<rect x="327.316" y="176.264" style="fill:#D4E1F4;" width="33.574" height="251.803"/>
		<rect x="419.644" y="176.264" style="fill:#D4E1F4;" width="33.574" height="251.803"/>
	</g>
	<rect x="436.431" y="176.264" style="fill:#7FACFA;" width="16.787" height="251.803"/>
	
		<linearGradient id="SVGID_1_" gradientUnits="userSpaceOnUse" x1="-49.3168" y1="643.9575" x2="-48.8168" y2="642.5825" gradientTransform="matrix(369.3115 0 0 -134.2951 18372.7168 86530.6719)">
		<stop  offset="0" style="stop-color:#D3DFF2"/>
		<stop  offset="0.1717" style="stop-color:#D3DFF2"/>
		<stop  offset="0.2" style="stop-color:#D3DFF2"/>
		<stop  offset="0.2002" style="stop-color:#DAE2F2"/>
		<stop  offset="0.2007" style="stop-color:#EBEAF2"/>
		<stop  offset="0.2014" style="stop-color:#F6EFF2"/>
		<stop  offset="0.2023" style="stop-color:#FDF2F2"/>
		<stop  offset="0.205" style="stop-color:#FFF3F2"/>
		<stop  offset="0.2522" style="stop-color:#FFF3F2"/>
		<stop  offset="0.26" style="stop-color:#FFF3F2"/>
		<stop  offset="0.26" style="stop-color:#D3DFF2"/>
		<stop  offset="0.3974" style="stop-color:#D3DFF2"/>
		<stop  offset="0.42" style="stop-color:#D3DFF2"/>
		<stop  offset="0.4202" style="stop-color:#DAE2F2"/>
		<stop  offset="0.4207" style="stop-color:#EBEAF2"/>
		<stop  offset="0.4214" style="stop-color:#F6EFF2"/>
		<stop  offset="0.4223" style="stop-color:#FDF2F2"/>
		<stop  offset="0.425" style="stop-color:#FFF3F2"/>
		<stop  offset="0.4894" style="stop-color:#FFF3F2"/>
		<stop  offset="0.5" style="stop-color:#FFF3F2"/>
		<stop  offset="0.5" style="stop-color:#F8F0F2"/>
		<stop  offset="0.5001" style="stop-color:#E7E8F2"/>
		<stop  offset="0.5003" style="stop-color:#DCE3F2"/>
		<stop  offset="0.5005" style="stop-color:#D5E0F2"/>
		<stop  offset="0.501" style="stop-color:#D3DFF2"/>
		<stop  offset="0.7062" style="stop-color:#D3DFF2"/>
		<stop  offset="0.74" style="stop-color:#D3DFF2"/>
		<stop  offset="0.741" style="stop-color:#FFF3F2"/>
		<stop  offset="0.8346" style="stop-color:#FFF3F2"/>
		<stop  offset="0.85" style="stop-color:#FFF3F2"/>
		<stop  offset="0.851" style="stop-color:#D3DFF2"/>
	</linearGradient>
	<polygon style="fill:url(#SVGID_1_);" points="251.8,8.395 436.456,142.69 67.145,142.69 	"/>
	<polygon style="fill:#7FACFA;" points="251.8,8.395 251.8,8.395 390.292,142.69 432.259,142.69 	"/>
	<g>
		<rect x="8.391" y="461.641" style="fill:#FFFFFF;" width="25.18" height="33.574"/>
		<rect x="25.178" y="428.067" style="fill:#FFFFFF;" width="25.18" height="33.574"/>
		<rect x="8.391" y="142.69" style="fill:#FFFFFF;" width="25.18" height="33.574"/>
		<rect x="50.358" y="176.264" style="fill:#FFFFFF;" width="16.787" height="251.803"/>
		<polygon style="fill:#FFFFFF;" points="251.8,8.395 251.8,8.395 109.112,142.69 67.145,142.69 		"/>
	</g>
	<g>
		<path style="fill:#428DFF;" d="M495.213,503.606H8.393c-4.635,0-8.393-3.758-8.393-8.393v-33.574c0-4.635,3.758-8.393,8.393-8.393
			h486.82c2.226-0.001,4.362,0.883,5.936,2.458s2.458,3.709,2.458,5.936v33.574c0.001,2.226-0.884,4.362-2.458,5.936
			C499.575,502.722,497.439,503.606,495.213,503.606z M16.787,486.819H486.82v-16.787H16.787V486.819z"/>
		<path style="fill:#428DFF;" d="M478.426,470.032H25.18c-4.635,0-8.393-3.758-8.393-8.393v-33.574c0-4.635,3.758-8.393,8.393-8.393
			h453.246c2.226-0.001,4.362,0.883,5.936,2.458s2.458,3.709,2.458,5.936v33.574c0.001,2.226-0.884,4.361-2.458,5.936
			C482.788,469.148,480.652,470.032,478.426,470.032L478.426,470.032z M33.574,453.245h436.459v-16.787H33.574V453.245z"/>
		<path style="fill:#428DFF;" d="M495.213,184.655H8.393c-4.635,0-8.393-3.758-8.393-8.393v-33.574c0-4.635,3.758-8.393,8.393-8.393
			h486.82c2.226-0.001,4.362,0.884,5.936,2.458s2.458,3.709,2.458,5.936v33.574c0.001,2.226-0.884,4.362-2.458,5.936
			C499.575,183.771,497.439,184.655,495.213,184.655L495.213,184.655z M16.787,167.868H486.82v-16.787H16.787V167.868z"/>
		<path style="fill:#428DFF;" d="M83.934,436.458H50.361c-4.635,0-8.393-3.758-8.393-8.393V176.261c0-4.635,3.758-8.393,8.393-8.393
			h33.574c4.636,0,8.393,3.758,8.393,8.393v251.803C92.328,432.7,88.57,436.458,83.934,436.458L83.934,436.458z M58.754,419.671
			h16.787V184.655H58.754V419.671z"/>
		<path style="fill:#428DFF;" d="M176.262,436.458h-33.574c-4.635,0-8.393-3.758-8.393-8.393V176.261
			c0-4.635,3.758-8.393,8.393-8.393h33.574c4.636,0,8.393,3.758,8.393,8.393v251.803C184.655,432.7,180.898,436.458,176.262,436.458
			L176.262,436.458z M151.082,419.671h16.787V184.655h-16.787V419.671z"/>
		<path style="fill:#428DFF;" d="M268.59,436.458h-33.574c-4.635,0-8.393-3.758-8.393-8.393V176.261
			c0-4.635,3.758-8.393,8.393-8.393h33.574c4.636,0,8.393,3.758,8.393,8.393v251.803C276.983,432.7,273.226,436.458,268.59,436.458
			L268.59,436.458z M243.41,419.671h16.787V184.655H243.41V419.671z"/>
		<path style="fill:#428DFF;" d="M360.918,436.458h-33.574c-4.635,0-8.393-3.758-8.393-8.393V176.261
			c0-4.635,3.758-8.393,8.393-8.393h33.574c4.636,0,8.393,3.758,8.393,8.393v251.803C369.311,432.7,365.553,436.458,360.918,436.458
			L360.918,436.458z M335.738,419.671h16.787V184.655h-16.787V419.671z"/>
		<path style="fill:#428DFF;" d="M453.246,436.458h-33.574c-2.226,0.001-4.361-0.884-5.936-2.458
			c-1.574-1.574-2.458-3.709-2.458-5.936V176.261c-0.001-2.226,0.884-4.361,2.458-5.936c1.574-1.574,3.709-2.458,5.936-2.458h33.574
			c2.226-0.001,4.362,0.884,5.936,2.458s2.458,3.709,2.458,5.936v251.803c0.001,2.226-0.884,4.361-2.458,5.936
			C457.607,435.574,455.472,436.459,453.246,436.458L453.246,436.458z M428.066,419.671h16.787V184.655h-16.787V419.671z"/>
		<path style="fill:#428DFF;" d="M436.459,151.081H67.148c-3.635,0-6.857-2.34-7.982-5.797c-1.125-3.457,0.104-7.245,3.043-9.384
			L246.865,1.605c2.945-2.139,6.932-2.139,9.877,0l184.652,134.295c2.942,2.137,4.173,5.925,3.049,9.383
			S440.095,151.082,436.459,151.081z M92.959,134.294h317.689L251.803,18.769L92.959,134.294z"/>
	</g>
</g>
<g>
</g>
<g>
</g>
<g>
</g>
<g>
</g>
<g>
</g>
<g>
</g>
<g>
</g>
<g>
</g>
<g>
</g>
<g>
</g>
<g>
</g>
<g>
</g>
<g>
</g>
<g>
</g>
<g>
</g>
</svg>
